<?xml version="1.0" encoding="utf-8"?>
<!-- Generator: Adobe Illustrator 19.2.1, SVG Export Plug-In . SVG Version: 6.00 Build 0)  -->
<svg version="1.1" id="Layer_1" xmlns="http://www.w3.org/2000/svg" xmlns:xlink="http://www.w3.org/1999/xlink" x="0px" y="0px"
	 viewBox="0 0 192.9 146.4" style="enable-background:new 0 0 192.9 146.4;" xml:space="preserve">
<style type="text/css">
	.st0{fill:#C32129;}
	.st1{fill:#ED1D43;}
	.st2{fill:#BABABA;}
	.st3{fill:#F2F2F2;}
	.st4{fill:none;stroke:#000000;stroke-width:2.0415;stroke-miterlimit:10;}
</style>
<g>
	<g>
		<path class="st0" d="M85.6,28.4L27.4,1.1c-4.4-2.5-9.9,0.6-9.9,5.7l-1.8,52.8l1.1,12.1c1.9,2.5,5.5,3.5,8.5,1.7l60.3-33.6
			C90,37.2,90,30.9,85.6,28.4z"/>
		<path class="st1" d="M177.2,71.2l0.9-10.5l-1.8-54.1c0-5.1-5.5-8.2-9.9-5.7l-58.3,27.2c-4.4,2.5-4.4,8.9,0,11.4l60.3,33.6
			C171.7,75,175.4,73.8,177.2,71.2z"/>
	</g>
	<g>
		<path class="st2" d="M117.3,23.5L117.3,23.5l-20.4,0.1v122.8c0,0,6.7-0.2,18.7-2c12-1.9,46.9-19.6,46.9-19.6
			c5-3.4,9.6-7.2,10.6-14.7c0,0,5.1-48.1,5.1-51.3L117.3,23.5z"/>
		<path class="st3" d="M76.5,23.6L76.5,23.6L76.5,23.6l-61,35.2c0,2.6,5.1,51.3,5.1,51.3c1.3,6.2,4.2,10.9,10.6,14.7
			c0,0,33.3,17,46.9,19.6c11.8,2.3,18.7,2,18.7,2V23.6H76.5z"/>
	</g>
	<g>
		<g>
			<line class="st4" x1="163.6" y1="93.6" x2="192.8" y2="90"/>
			<line class="st4" x1="163.6" y1="102.4" x2="188.4" y2="106"/>
		</g>
		<g>
			<line class="st4" x1="29.4" y1="93.6" x2="0.1" y2="90"/>
			<line class="st4" x1="29.4" y1="102.4" x2="4.6" y2="106"/>
		</g>
	</g>
	<g>
		<path d="M27.6,71.6c0,0,31.3-5.9,46.1,14.8S27.6,71.6,27.6,71.6z"/>
		<path d="M165.3,71.6c0,0-31.3-5.9-46.1,14.8S165.3,71.6,165.3,71.6z"/>
	</g>
</g>
</svg>
