<?xml version="1.0" encoding="utf-8"?>
<!-- Generator: Adobe Illustrator 19.2.1, SVG Export Plug-In . SVG Version: 6.00 Build 0)  -->
<svg version="1.1" id="Layer_1" xmlns="http://www.w3.org/2000/svg" xmlns:xlink="http://www.w3.org/1999/xlink" x="0px" y="0px"
	 viewBox="0 0 146.7 146.7" style="enable-background:new 0 0 146.7 146.7;" xml:space="preserve">
<style type="text/css">
	.st0{fill-rule:evenodd;clip-rule:evenodd;fill:#ED7371;}
	.st1{fill-rule:evenodd;clip-rule:evenodd;fill:#FFC74F;}
	.st2{fill-rule:evenodd;clip-rule:evenodd;fill:#804475;}
	.st3{fill-rule:evenodd;clip-rule:evenodd;fill:#FFF8F0;}
	.st4{fill-rule:evenodd;clip-rule:evenodd;fill:#FAE1C8;}
	.st5{fill-rule:evenodd;clip-rule:evenodd;fill:#2266C9;}
</style>
<path class="st0" d="M73.3,146.7c40.4,0,73.3-32.9,73.3-73.3C146.7,32.9,113.7,0,73.3,0C32.9,0,0,32.9,0,73.3
	C0,113.7,32.9,146.7,73.3,146.7z"/>
<g>
	<g>
		<path class="st1" d="M86.5,59.4l38.1-19.9l18.4,28.1l0.4,1c0.1,1.9,0.2,3.8,0.3,5.8L109,91.6L86.5,59.4z"/>
		<path class="st1" d="M50.7,86.8l-0.5-0.4c-4,6.1,0.8,14.2,7.1,11.8c-4.7,5.8-0.8,13.9,5.1,13.1c-3.7,6,1.3,13.8,7.7,10.6
			l29.2-14.6c8.2-4.1,17.7-14.4,21-20.4c9.9-17.9-2.6-35.4-11-37c-6.6-1.3-11-3.1-15.4-1L45.4,72.3C36.3,76,43.2,89.4,50.7,86.8z"/>
		<path class="st2" d="M131.7,28.9l-24.5,12.3L130,86.9l16.5-8.3c0.1-1.7,0.2-3.4,0.2-5.2C146.7,56.6,141.1,41.2,131.7,28.9z"/>
	</g>
	<g>
		<path class="st3" d="M76.7,67.6L45.4,38.1L20.1,60.2l-0.7,0.8c-0.7,1.8-1.3,3.6-1.9,5.5l28.7,26L76.7,67.6z"/>
		<path class="st3" d="M103.7,103.6l0.6-0.2c2.2,7-4.6,13.4-10.1,9.5c3,6.8-2.9,13.6-8.4,11.2c2,6.8-5,12.9-10.3,8.1l-24.2-21.9
			c-6.8-6.2-13.2-18.6-14.7-25.3c-4.7-19.9,12-33.4,20.6-32.7c6.7,0.5,11.4,0,15.1,3.2l40.4,35.6
			C120.5,97.2,110.3,108.2,103.7,103.6z"/>
		<path class="st4" d="M94.3,113.9v-0.7c0.1,0.4,0.3,0.7,0.4,1.1L94.3,113.9L94.3,113.9z M94.3,113c0.8,0.5,1.5,0.8,2.3,1
			c-0.7-0.6-1.5-1.2-2.3-1.8V113L94.3,113z M94.3,95.5v-0.4c2.8,2.3,7.5,6.2,10,8.3c-0.1,0,0,0,0.1,0.2c0.2,0.6,0.3,1.2,0.3,1.9
			C101.6,102.6,97.1,98.2,94.3,95.5z M77.1,116.9c0,0,4.7,4.5,9,8.4c-0.1-0.4-0.1-0.8-0.3-1.2c0.5,0.2,1,0.3,1.4,0.4
			C82.7,121,77.1,116.9,77.1,116.9L77.1,116.9z M94.3,95.1v0.4c-1.4-1.4-2.3-2.3-2.3-2.3S93,94,94.3,95.1L94.3,95.1z M94.3,112.2
			v0.8l-0.1-0.1c0,0.1,0.1,0.2,0.1,0.3v0.7c-4.6-4.3-10.1-9.4-10.1-9.4S89.8,108.7,94.3,112.2z"/>
		<path class="st5" d="M28.9,15l32.7,29.5L27.4,82.3l-26-23.4C5,41.1,15,25.6,28.9,15z"/>
	</g>
	<path class="st1" d="M72.9,109.8L72.9,109.8c2,2.3,1.8,6.1-0.6,7.9l-8.2,6.1c-2.5,1.8-5.9,1.7-7.9-0.6l0,0c-2-2.3-1.7-5.9,0.6-7.9
		l8.2-6.1C67.5,107.3,70.9,107.4,72.9,109.8z"/>
	<path class="st1" d="M65.7,101.3L65.7,101.3c2,2.3,1.8,6.1-0.6,7.9l-8.2,6.1c-2.5,1.8-5.9,1.7-7.9-0.6l0,0c-2-2.3-1.7-5.9,0.6-7.9
		l8.2-6.1C60.3,98.8,63.7,98.9,65.7,101.3z"/>
	<path class="st1" d="M58.4,92.8L58.4,92.8c2,2.3,1.8,6.1-0.6,7.9l-8.2,6.1c-2.5,1.8-5.9,1.7-7.9-0.6l0,0c-2-2.3-1.7-5.9,0.6-7.9
		l8.2-6.1C53,90.3,56.4,90.4,58.4,92.8z"/>
	<path class="st1" d="M51.2,84.3L51.2,84.3c2,2.3,1.8,6.1-0.6,7.9l-8.2,6.1c-2.5,1.8-5.9,1.7-7.9-0.6l0,0c-2-2.3-1.7-5.9,0.6-7.9
		l8.2-6.1C45.7,81.8,49.2,81.9,51.2,84.3z"/>
	<path class="st1" d="M65.3,52.2c2.3-1.3,7.4-2.6,12.8-3.5c5.4-0.9,13.7-1.6,20-0.8c3.9,0.5,9.6,3.8,9.2,8.3
		c-0.4,4.5-13.1,8.1-17.1,8.3c-3.2,0-14.1-3.4-21.4-0.3c-8.4,3.6-15.1-0.8-14.8-4.7C54,58.7,57.5,56.8,65.3,52.2z"/>
</g>
</svg>
