<?xml version="1.0" encoding="utf-8"?>
<!-- Generator: Adobe Illustrator 19.2.1, SVG Export Plug-In . SVG Version: 6.00 Build 0)  -->
<svg version="1.1" id="Layer_1" xmlns="http://www.w3.org/2000/svg" xmlns:xlink="http://www.w3.org/1999/xlink" x="0px" y="0px"
	 viewBox="0 0 177.4 177.4" style="enable-background:new 0 0 177.4 177.4;" xml:space="preserve">
<style type="text/css">
	.st0{clip-path:url(#SVGID_2_);}
	.st1{fill:#683C11;}
	.st2{fill:#F4E3D6;}
	.st3{fill:#F3D1BB;}
	.st4{fill:#3C3C3B;}
	.st5{fill:#F5F5F5;}
	.st6{fill:#2D2E82;}
</style>
<g>
	<defs>
		<rect id="SVGID_1_" width="177.4" height="177.4"/>
	</defs>
	<clipPath id="SVGID_2_">
		<use xlink:href="#SVGID_1_"  style="overflow:visible;"/>
	</clipPath>
	<g class="st0">
		<g>
			<g>
				<path class="st1" d="M140.4,141.3c0-0.2,0-0.3-0.2-0.5c-15.2-13.7-12.8-38-13.9-56.6c-0.9-14.3,0.2-34.4-11.4-45.1
					c0-0.2-0.2-0.3-0.4-0.4c-0.5-0.4-0.9-0.8-1.4-1.2c-0.2-0.2-0.4,0.2-0.3,0.3c0.2,0.2,0.3,0.4,0.5,0.6C106,36.9,97.7,38,90.3,38
					c-9.2,0-18.6-0.3-27.8,0.3c-0.3,0-0.4,0.3-0.3,0.5c-9.6,12.8-8.6,31.9-10.4,46.9C50.6,95.4,49,104.9,46,114
					c-2.9,8.8-7.4,16-12.4,23.7c-0.1,0.1-0.1,0.2-0.1,0.2c0,0-0.1,0.1-0.1,0.1c-0.3,0-0.5,0.2-0.6,0.5c0,0.1,0,0.2,0,0.3
					c-3.1,4.8,5.7,13,9,15.4c9.6,6.8,21.7,9.7,33.4,10.1c13.2,0.4,26.3-2.2,39-5.5c5.4-1.4,11.3-2.6,16.3-5.2
					c4.5-2.4,7.3-6.4,9.9-10.7c0.1-0.1,0.1-0.3,0.1-0.4c0.1,0,0.1-0.1,0.2-0.2c0.1-0.1,0.2-0.1,0.2-0.3
					C140.9,141.6,140.7,141.4,140.4,141.3z"/>
				<path class="st2" d="M104.4,119.9c-3.7-5.3-5.8-10.5-5.7-17c0-1.4-1.2-2-2.3-1.9c-0.1-0.1-0.3-0.3-0.5-0.4
					c-5.5-3.5-12.6-2.6-18.5-0.5c-0.5,0.2-0.8,0.6-0.9,1c-0.7,0.1-1.3,0.7-1.1,1.7c1.8,7.7-0.9,12.8-4.5,19.3c-1.9,3.5-7.2,3-6,6.9
					c2.6,8.8,16.4,17.1,25,16.6c8.4-0.5,19.6-11,20.8-20.1C111.3,120.9,106.9,123.5,104.4,119.9z"/>
				<path class="st3" d="M119.9,66.7c0.5-4.1,0.6-8.2,0.1-12C117.4,34.9,91.1,37,76.6,37.1c-8.7,0.1-13.9,4.3-16.3,12.6
					c-1.6,5.7-2.2,11.7-2.2,17.7c-1.4-0.2-2.8,0.2-3.8,1.3c-1.5,1.6-1.6,4.2-1.3,6.3c0.3,2.1,1,4.3,3,5.5c1,0.6,2.3,0.8,3.4,0.5
					c0,0.3,0.1,0.6,0.1,1c0,0.2,0.1,0.4,0.2,0.5c1.1,5.6,3.2,11,6.7,15.7c9.1,12.4,25.9,15.8,38,5.7c6.4-5.4,10.2-13.1,12.3-21.1
					c0.2-0.6,0.3-1.3,0.5-2c0.2,0.1,0.4,0.1,0.7,0.1C124,80.6,125.2,68.2,119.9,66.7z"/>
				<path class="st1" d="M120.3,48.3c-1.5-4.7-5-9.1-8.6-12.4c-8.1-7.5-20.2-9.4-30.9-8c-9.6,1.2-18.4,6.5-21.8,15.9
					c-2.2,6-2.1,12.4-1.7,18.7c0.4,6.3,0.8,12.7,1.7,18.9c0,0.1-0.1,0.2-0.1,0.3c0,0.2,0.1,0.4,0.2,0.4c0.1,0.3,0.6,0.2,0.6-0.2
					c0,0,0-0.1,0-0.1c1.8-6.8,6.6-9.6,12.9-11.7c5.9-2,11.8-3.8,17.8-5.5c5.8-1.6,14.3-3.8,16.6-10.2c0.3,2.3,2.1,4.6,3.6,6.2
					c2.5,2.7,6.2,4,9.2,6.1c0.4,0.3,0.8-0.2,0.6-0.6c0.2-0.1,0.3-0.2,0.3-0.5C121,60,122.1,53.7,120.3,48.3z"/>
			</g>
			<path class="st4" d="M117.1,81.6c-1.8,9-8.9,13.5-17.5,14.2c-0.1-0.6-0.3-1.1-0.7-1.3c-0.5-0.4-1.5-0.2-2-0.2
				c-1.4,0-2.8-0.1-4.2,0c-1.2,0-3.6-0.3-4.5,0.7c-0.8,1-0.2,2.9,0,4c0.1,0.3,0.4,0.4,0.6,0.3c0,0,0,0,0,0c0,0,0.1,0.1,0.2,0.1
				c3,0.7,6.9,0.7,9.9,0.1c0.2,0,0.3-0.2,0.3-0.4c0.1-0.1,0.3-0.3,0.3-0.5c0-0.4,0.1-0.9,0.1-1.4c9.3,0.5,17.6-6,18.9-15.4
				C118.6,81,117.2,80.8,117.1,81.6z"/>
			<path class="st4" d="M120.5,43.8c-5.7-13.1-19.3-17.6-32.8-16.9c-12.2,0.6-26,4.8-31,17.1C54,50.8,53.3,58.8,53,66.1
				c-0.1,3.4-1.2,11.1,4.1,10.9c0.5,0,0.7-0.6,0.4-0.9c0-1.8-0.4-3.6-0.4-5.4c0-0.2-0.1-0.4-0.3-0.5c-0.5-0.2-1-0.3-1.5-0.4
				c1.2-9.5,0.2-19.1,5.9-27.5c5.8-8.5,16.2-11.1,25.9-11.6c10.3-0.5,20.3,0.9,27.1,9.5c6.6,8.5,6.3,19.7,6,29.9
				c-0.4,0.1-0.8,0.2-1.1,0.5c-0.6,0.5-0.7,1.3-0.8,2.1c-0.1,1.1-0.2,2.2-0.2,3.3c-0.9,0.3-0.5,1.7,0.5,1.5
				c5.1-1.3,4.6-9.2,4.9-13.2C123.8,57.2,123.3,50.2,120.5,43.8z"/>
		</g>
		<g>
			<path class="st5" d="M113.4,133.4c-1.1-4.7-2.9-8.3-7.1-11c-0.3-0.2,0-0.6-0.2-0.5c-0.3,0-0.5-0.1-0.5,0.3
				c-0.2,18.4-33.5,20.5-35.4,2.2c-1.3-0.4-0.6,0.5-0.6,0.5c0.2-0.3,0.2-0.3,0-0.5c-0.2-0.4-1.5,0-1.6,0.6
				c-12.8,18,2.9,45,25.7,42.7c9.6-1,19.4-7.6,21.1-17.6C115.7,144.6,114.6,138.7,113.4,133.4z"/>
			<path class="st6" d="M148.2,187.2c0.1-0.2,0.2-0.4,0.1-0.6c-2.8-15.4-6-31.1-10.9-46c-1.9-5.6-4.8-7.7-10-10.3
				c-6.1-3.2-12.9-7-19.7-8.5c-0.1,0-0.2,0-0.3,0c-0.3-0.1-1.3-0.8-1.5-0.4c-2.7,5.9-5.3,12.3-8.1,18c-2.8,5.8-6.2,12-10.3,17
				c-3.4-5.2-6.7-10.5-9.6-16c-2.8-5.3-4.7-11.9-8.2-16.7c0-0.1-0.1-0.2-0.2-0.2c0-0.1-0.1-0.1-0.1-0.2c-0.1-0.1-0.3-0.1-0.2,0.1
				c0,0,0,0.1,0,0.1c-6,0.7-12.1,4.1-17.7,6.4c-5.3,2.2-9.4,3-11.2,8.5c-4.8,14-9,28.4-11.8,43c-0.1,0.5,0.3,0.8,0.7,0.8
				c7.3,7.6,16.6,10.5,26.8,12.5c10.9,2.1,21.9,3.2,33,3.5c11.1,0.2,22.2-0.6,33.1-2.2c5.9-0.9,11.7-2.1,17.5-3.5
				c3.2-0.8,6.7-1.3,8.6-4.3C148.5,187.9,148.5,187.5,148.2,187.2z"/>
		</g>
	</g>
</g>
</svg>
